<?xml version="1.0" standalone="no"?>
<!DOCTYPE svg PUBLIC "-//W3C//DTD SVG 20010904//EN"
 "http://www.w3.org/TR/2001/REC-SVG-20010904/DTD/svg10.dtd">
<svg version="1.0" xmlns="http://www.w3.org/2000/svg"
 width="1026.000000pt" height="1026.000000pt" viewBox="0 0 1026.000000 1026.000000"
 preserveAspectRatio="xMidYMid meet">
<metadata>
Created by potrace 1.14, written by Peter Selinger 2001-2017
</metadata>
<g transform="translate(0.000000,1026.000000) scale(0.100000,-0.100000)"
fill="#000000" stroke="none">
<path d="M4107 9864 c-1 -1 -27 -4 -57 -7 -216 -22 -424 -166 -522 -363 -70
-142 -67 -74 -68 -1440 l0 -1231 112 -106 c62 -57 127 -118 143 -133 17 -16
89 -83 160 -149 70 -66 165 -154 209 -196 45 -42 104 -97 131 -122 28 -25 75
-69 106 -99 31 -29 107 -100 169 -158 63 -58 128 -118 145 -135 18 -16 85 -79
150 -140 65 -60 143 -134 174 -163 73 -70 96 -85 118 -78 10 3 48 34 84 69 37
34 124 116 195 182 71 66 160 149 198 185 38 36 77 72 86 80 9 8 77 72 152
143 74 70 146 136 159 148 13 11 53 48 89 82 130 123 326 306 360 337 19 18
88 82 153 143 l117 110 0 1236 c-1 1376 3 1290 -71 1441 -90 181 -273 312
-499 356 -28 6 -1986 13 -1993 8z"/>
<path d="M637 6644 c-1 -1 -24 -4 -52 -8 -249 -29 -473 -208 -557 -446 l-23
-65 -2 -950 c-3 -1052 -5 -1014 62 -1150 89 -181 247 -306 455 -360 60 -15
305 -19 1410 -20 819 -1 1323 2 1335 8 11 5 27 17 36 26 18 18 233 218 259
241 9 8 75 70 146 136 71 67 145 137 165 155 20 19 88 82 150 140 63 59 130
121 149 139 19 18 60 55 90 84 30 28 89 83 130 121 42 39 136 127 210 196 74
69 160 149 191 178 31 28 59 60 62 71 6 22 -18 48 -139 159 -32 30 -90 84
-129 121 -86 80 -299 278 -340 316 -42 38 -244 225 -269 249 -12 11 -75 70
-141 130 -65 61 -133 124 -150 140 -18 17 -81 75 -141 130 -116 107 -143 133
-223 210 l-52 50 -1315 0 c-724 0 -1316 -1 -1317 -1z"/>
<path d="M6961 6611 c-20 -18 -72 -66 -117 -107 -44 -40 -98 -91 -120 -111
-22 -21 -73 -69 -114 -107 -89 -82 -151 -140 -330 -306 -74 -69 -159 -148
-190 -177 -30 -28 -71 -66 -90 -83 -61 -56 -151 -139 -290 -269 -74 -69 -162
-151 -195 -181 -98 -90 -101 -95 -96 -140 1 -8 24 -35 50 -60 27 -25 95 -88
151 -140 56 -52 130 -121 164 -153 33 -32 99 -94 146 -137 47 -43 110 -101
140 -130 30 -28 78 -73 105 -98 134 -125 211 -197 335 -313 178 -167 196 -183
329 -308 63 -58 120 -112 128 -119 7 -7 25 -17 40 -21 36 -9 2646 -6 2693 3
64 13 180 56 234 86 124 71 241 210 294 352 l27 73 0 975 0 975 -22 70 c-54
173 -186 318 -360 397 -141 64 -75 61 -1542 62 l-1335 1 -35 -34z"/>
<path d="M4987 4893 c-34 -31 -82 -76 -107 -99 -55 -52 -86 -81 -229 -214 -63
-58 -132 -123 -156 -145 -23 -22 -100 -94 -171 -160 -71 -66 -162 -151 -203
-190 -41 -38 -82 -77 -91 -85 -9 -8 -46 -42 -81 -75 -35 -33 -100 -94 -144
-135 -44 -41 -140 -131 -213 -199 l-133 -124 4 -1261 c3 -1406 -4 -1281 74
-1429 41 -78 138 -185 213 -234 70 -46 165 -84 254 -102 73 -14 188 -16 1081
-15 550 1 1009 4 1020 7 11 3 43 11 70 18 63 15 174 69 235 114 99 73 177 178
226 305 l29 75 3 1261 3 1261 -79 74 c-43 41 -130 121 -192 179 -62 58 -130
121 -151 140 -20 19 -89 85 -154 145 -65 61 -130 121 -145 135 -15 14 -85 79
-155 145 -71 66 -146 136 -166 155 -20 19 -88 82 -150 140 -164 153 -245 229
-324 303 -38 37 -78 67 -88 67 -9 0 -45 -26 -80 -57z"/>
</g>
</svg>
